<svg width="15" height="15" viewBox="0 0 15 15" fill="none" xmlns="http://www.w3.org/2000/svg">
<path d="M7.5 0C3.35685 0 0 3.35685 0 7.5C0 11.6431 3.35685 15 7.5 15C11.6431 15 15 11.6431 15 7.5C15 3.35685 11.6431 0 7.5 0ZM7.5 13.5484C4.15827 13.5484 1.45161 10.8417 1.45161 7.5C1.45161 4.15827 4.15827 1.45161 7.5 1.45161C10.8417 1.45161 13.5484 4.15827 13.5484 7.5C13.5484 10.8417 10.8417 13.5484 7.5 13.5484ZM9.36895 10.3911L6.80141 8.5252C6.70766 8.45564 6.65323 8.34677 6.65323 8.23186V3.26613C6.65323 3.06653 6.81653 2.90323 7.01613 2.90323H7.98387C8.18347 2.90323 8.34677 3.06653 8.34677 3.26613V7.55141L10.3669 9.02117C10.5302 9.13911 10.5635 9.36593 10.4456 9.52923L9.87702 10.3125C9.75907 10.4728 9.53226 10.5091 9.36895 10.3911Z" fill="black" />
</svg>
